REM DIRINDEX 1\2,1\3,1\4,1\5
REM DIRNAME "folder01","folder02","folder03","folder04","folder05"
TITLE ""
FILE "P1Q_t_0349-0358.mp3" MP3
  TRACK 01 AUDIO
    TITLE "3:cjc173_1970"
    INDEX 01 00:00:00
  TRACK 02 AUDIO
    TITLE "0:"
    INDEX 01 00:01:27
  TRACK 03 AUDIO
    TITLE "4:cjc173_1971"
    INDEX 01 00:01:49
  TRACK 04 AUDIO
    TITLE "0:"
    INDEX 01 00:03:40
  TRACK 05 AUDIO
    TITLE "5:cjc173_1972"
    INDEX 01 00:03:60
  TRACK 06 AUDIO
    TITLE "0:"
    INDEX 01 00:07:46
  TRACK 07 AUDIO
    TITLE "3:cjc173_1973"
    INDEX 01 00:08:16
  TRACK 08 AUDIO
    TITLE "0:"
    INDEX 01 00:09:33
  TRACK 09 AUDIO
    TITLE "4:cjc173_1974"
    INDEX 01 00:09:56
  TRACK 10 AUDIO
    TITLE "0:"
    INDEX 01 00:12:17
  TRACK 11 AUDIO
    TITLE "5:cjc173_1975"
    INDEX 01 00:12:37
  TRACK 12 AUDIO
    TITLE "0:"
    INDEX 01 00:17:24
  TRACK 13 AUDIO
    TITLE "3:cjc173_1976"
    INDEX 01 00:17:70
  TRACK 14 AUDIO
    TITLE "0:"
    INDEX 01 00:19:08
  TRACK 15 AUDIO
    TITLE "4:cjc173_1977"
    INDEX 01 00:19:29
  TRACK 16 AUDIO
    TITLE "0:"
    INDEX 01 00:23:03
  TRACK 17 AUDIO
    TITLE "5:cjc173_1978"
    INDEX 01 00:23:23
  TRACK 18 AUDIO
    TITLE "0:"
    INDEX 01 00:28:32
  TRACK 19 AUDIO
    TITLE "3:cjc173_1979"
    INDEX 01 00:29:06
  TRACK 20 AUDIO
    TITLE "0:"
    INDEX 01 00:30:27
  TRACK 21 AUDIO
    TITLE "4:cjc173_1980"
    INDEX 01 00:30:47
  TRACK 22 AUDIO
    TITLE "0:"
    INDEX 01 00:32:24
  TRACK 23 AUDIO
    TITLE "5:cjc173_1981"
    INDEX 01 00:32:44
  TRACK 24 AUDIO
    TITLE "0:"
    INDEX 01 00:36:39
  TRACK 25 AUDIO
    TITLE "3:cjc173_1982"
    INDEX 01 00:37:11
  TRACK 26 AUDIO
    TITLE "0:"
    INDEX 01 00:38:17
  TRACK 27 AUDIO
    TITLE "4:cjc173_1983"
    INDEX 01 00:38:38
  TRACK 28 AUDIO
    TITLE "0:"
    INDEX 01 00:41:09
  TRACK 29 AUDIO
    TITLE "5:cjc173_1984"
    INDEX 01 00:41:31
  TRACK 30 AUDIO
    TITLE "0:"
    INDEX 01 00:46:22
  TRACK 31 AUDIO
    TITLE "3:cjc173_1985"
    INDEX 01 00:46:69
  TRACK 32 AUDIO
    TITLE "0:"
    INDEX 01 00:47:71
  TRACK 33 AUDIO
    TITLE "4:cjc173_1986"
    INDEX 01 00:48:17
  TRACK 34 AUDIO
    TITLE "0:"
    INDEX 01 00:50:32
  TRACK 35 AUDIO
    TITLE "5:cjc173_1987"
    INDEX 01 00:50:51
  TRACK 36 AUDIO
    TITLE "0:"
    INDEX 01 00:54:63
  TRACK 37 AUDIO
    TITLE "3:cjc173_1988"
    INDEX 01 00:55:39
  TRACK 38 AUDIO
    TITLE "0:"
    INDEX 01 00:56:72
  TRACK 39 AUDIO
    TITLE "4:cjc173_1989"
    INDEX 01 00:57:20
  TRACK 40 AUDIO
    TITLE "0:"
    INDEX 01 00:58:14
  TRACK 41 AUDIO
    TITLE "5:cjc173_1990"
    INDEX 01 00:58:33
  TRACK 42 AUDIO
    TITLE "0:"
    INDEX 01 01:03:11
  TRACK 43 AUDIO
    TITLE "3:cjc173_1991"
    INDEX 01 01:03:58
  TRACK 44 AUDIO
    TITLE "0:"
    INDEX 01 01:05:10
  TRACK 45 AUDIO
    TITLE "4:cjc173_1992"
    INDEX 01 01:05:31
  TRACK 46 AUDIO
    TITLE "0:"
    INDEX 01 01:07:38
  TRACK 47 AUDIO
    TITLE "5:cjc173_1993"
    INDEX 01 01:07:60
  TRACK 48 AUDIO
    TITLE "0:"
    INDEX 01 01:14:09
  TRACK 49 AUDIO
    TITLE "3:cjc173_1994"
    INDEX 01 01:14:56
  TRACK 50 AUDIO
    TITLE "0:"
    INDEX 01 01:15:67
  TRACK 51 AUDIO
    TITLE "4:cjc173_1995"
    INDEX 01 01:16:15
  TRACK 52 AUDIO
    TITLE "0:"
    INDEX 01 01:19:22
  TRACK 53 AUDIO
    TITLE "5:cjc173_1996"
    INDEX 01 01:19:41
  TRACK 54 AUDIO
    TITLE "0:"
    INDEX 01 01:24:68
  TRACK 55 AUDIO
    TITLE "3:cjc173_1997"
    INDEX 01 01:25:38
  TRACK 56 AUDIO
    TITLE "0:"
    INDEX 01 01:26:71
  TRACK 57 AUDIO
    TITLE "4:cjc173_1998"
    INDEX 01 01:27:17
  TRACK 58 AUDIO
    TITLE "0:"
    INDEX 01 01:29:12
  TRACK 59 AUDIO
    TITLE "5:cjc173_1999"
    INDEX 01 01:29:34
  TRACK 60 AUDIO
    TITLE "0:"
    INDEX 01 01:34:25
